# This file uses centimeters as units for non-parametric coordinates.

mtllib fixed_waterTubeMesh2.mtl
g default
v 0.655330 -4.449513 14.039036
v 0.000000 -4.714729 13.981213
v -0.655330 -4.449513 14.039036
v -0.926777 -3.809224 14.178635
v -0.655330 -3.168935 14.318233
v 0.000000 -2.903719 14.376056
v 0.655330 -3.168935 14.318233
v 0.926777 -3.809224 14.178635
v 0.655330 -1.489206 -1.298987
v 0.000000 -1.730693 -1.175021
v -0.655330 -1.489206 -1.298987
v -0.926777 -0.906207 -1.598268
v -0.655330 -0.323208 -1.897549
v 0.000000 -0.081722 -2.021516
v 0.655330 -0.323208 -1.897549
v 0.926777 -0.906207 -1.598268
v 0.926777 -0.643296 2.336680
v 0.655330 -0.005316 2.459138
v -0.000000 0.255360 2.509863
v -0.655330 -0.030401 2.459138
v -0.926777 -0.671964 2.336680
v -0.655330 -1.306360 2.214220
v 0.000000 -1.549118 2.163496
v 0.655330 -1.281275 2.214220
v 0.926777 -0.441982 0.258321
v 0.655330 0.195546 0.161798
v -0.000000 0.459619 0.121817
v -0.655330 0.195546 0.161798
v -0.926777 -0.441982 0.258321
v -0.655330 -1.079510 0.354844
v 0.000000 -1.343583 0.394825
v 0.655330 -1.079511 0.354845
v 0.655330 -0.735661 5.990916
v -0.000000 -0.494506 6.049668
v -0.655330 -0.902578 5.990916
v -0.926777 -1.566190 5.849077
v -0.655330 -2.182112 5.707238
v 0.000000 -2.304041 5.648487
v 0.655330 -2.015196 5.707239
v 0.926777 -1.375428 5.849077
v 0.655330 -1.713156 9.711716
v 0.000000 -1.465587 9.769539
v -0.655330 -1.836691 9.711716
v -0.926777 -2.494628 9.572117
v -0.655330 -3.117269 9.432520
v 0.000000 -3.276598 9.374696
v 0.655330 -2.993734 9.432520
v 0.926777 -2.353445 9.572118
v 0.926777 -0.624394 -0.668051
v 0.853553 -0.591676 -1.759731
v 0.655330 -0.009468 -0.870228
v 0.353553 -0.146863 -1.988076
v 0.000000 0.245242 -0.953972
v -0.353553 -0.146863 -1.988076
v -0.655330 -0.009468 -0.870228
v -0.853553 -0.591676 -1.759731
v -0.926777 -0.624394 -0.668051
v -0.853553 -1.220738 -1.436805
v -0.655330 -1.239319 -0.465875
v -0.353553 -1.665551 -1.208461
v 0.000000 -1.494030 -0.382131
v 0.353553 -1.665551 -1.208461
v 0.655330 -1.239319 -0.465875
v 0.853553 -1.220738 -1.436805
v 0.353553 -0.542145 6.033820
v 0.655330 -0.328270 4.134576
v 0.000000 -0.078252 4.196112
v -0.353553 -0.637526 6.033819
v -0.655330 -0.428609 4.134576
v -0.853553 -1.221033 5.925600
v -0.926777 -1.081146 3.986015
v -0.853553 -1.911347 5.772554
v -0.655330 -1.705014 3.837454
v -0.353553 -2.304092 5.664335
v 0.000000 -1.883361 3.775917
v 0.353553 -2.208712 5.664335
v 0.655330 -1.604675 3.837453
v 0.853553 -1.720586 5.772554
v 0.926777 -0.966473 3.986015
v 0.853553 -1.030271 5.925600
v 0.655330 -1.177396 7.789532
v 0.000000 -0.935890 7.847355
v -0.655330 -1.343369 7.789532
v -0.926777 -2.007368 7.649934
v -0.655330 -2.623946 7.510336
v 0.000000 -2.746901 7.452512
v 0.655330 -2.457974 7.510336
v 0.926777 -1.817685 7.649934
v 0.353553 -4.643187 13.996811
v 0.000000 -3.957790 11.601739
v 0.353553 -3.187407 9.390293
v 0.655330 -3.683197 11.659562
v -0.353553 -4.643187 13.996811
v -0.655330 -3.748831 11.659563
v -0.353553 -3.257999 9.390293
v -0.853553 -4.154663 14.103321
v -0.926777 -3.117918 11.799161
v -0.853553 -2.840066 9.496803
v -0.853553 -3.463786 14.253948
v -0.655330 -2.468253 11.938759
v -0.853553 -2.149189 9.647431
v -0.353553 -2.975262 14.360457
v 0.000000 -2.146779 11.996582
v -0.353553 -1.590074 9.753941
v 0.353553 -2.975262 14.360457
v 0.655330 -2.402619 11.938759
v 0.353553 -1.519482 9.753941
v 0.853553 -3.463786 14.253948
v 0.926777 -3.042908 11.799160
v 0.853553 -2.008006 9.647430
v 0.853553 -4.154663 14.103321
v 0.853553 -2.698884 9.496803
v 0.853553 -0.299103 2.402747
v 0.926777 -0.458374 1.177007
v 0.853553 -0.098033 0.206247
v 0.655330 0.183110 1.203233
v 0.353553 0.187659 2.496180
v 0.353553 0.388385 0.132601
v 0.000000 0.448821 1.214097
v -0.353553 0.173325 2.496180
v -0.353553 0.388385 0.132601
v -0.655330 0.183110 1.203234
v -0.853553 -0.327771 2.402747
v -0.853553 -0.098033 0.206247
v -0.926777 -0.458374 1.177007
v -0.853553 -1.016156 2.270613
v -0.853553 -0.785931 0.310396
v -0.655330 -1.099858 1.150781
v -0.353553 -1.488584 2.177179
v -0.353553 -1.272349 0.384041
v 0.000000 -1.365569 1.139917
v 0.353553 -1.474250 2.177179
v 0.353553 -1.272349 0.384041
v 0.655330 -1.099858 1.150780
v 0.853553 -0.987488 2.270612
v 0.853553 -0.785931 0.310396
v 0.353553 -3.876871 11.617336
v -0.353553 -3.914376 11.617337
v -0.853553 -3.463357 11.723846
v -0.853553 -2.772480 11.874475
v -0.353553 -2.246451 11.980984
v 0.353553 -2.208946 11.980984
v 0.853553 -2.697470 11.874474
v 0.853553 -3.388347 11.723846
v 0.853553 -0.112291 1.191156
v 0.353553 0.377145 1.211166
v -0.353553 0.377145 1.211166
v -0.853553 -0.112291 1.191156
v -0.853553 -0.804457 1.162858
v -0.353553 -1.293893 1.142847
v 0.353553 -1.293893 1.142847
v 0.853553 -0.804457 1.162858
v 0.853553 -0.292639 -0.777126
v 0.353553 0.176534 -0.931382
v -0.353553 0.176534 -0.931382
v -0.853553 -0.292639 -0.777127
v -0.853553 -0.956149 -0.558977
v -0.353553 -1.425321 -0.404722
v 0.353553 -1.425321 -0.404722
v 0.853553 -0.956149 -0.558977
v 0.353553 -0.135228 4.179513
v -0.353553 -0.192564 4.179513
v -0.853553 -0.736833 4.066164
v -0.853553 -1.425458 3.905865
v -0.353553 -1.855054 3.792517
v 0.353553 -1.797718 3.792516
v 0.853553 -1.310786 3.905865
v 0.853553 -0.622160 4.066164
v 0.353553 -0.983723 7.831758
v -0.353553 -1.078564 7.831758
v -0.853553 -1.661929 7.725247
v -0.853553 -2.352807 7.574620
v -0.353553 -2.746489 7.468110
v 0.353553 -2.651648 7.468111
v 0.853553 -2.163124 7.574620
v 0.853553 -1.472247 7.725248
vt 0.375000 0.312500
vt 0.625000 0.312500
vt 0.406250 0.312500
vt 0.437500 0.312500
vt 0.468750 0.312500
vt 0.500000 0.312500
vt 0.531250 0.312500
vt 0.562500 0.312500
vt 0.593750 0.312500
vt 0.625000 0.687500
vt 0.375000 0.687500
vt 0.406250 0.687500
vt 0.437500 0.687500
vt 0.468750 0.687500
vt 0.500000 0.687500
vt 0.531250 0.687500
vt 0.562500 0.687500
vt 0.593750 0.687500
vt 0.593750 0.606481
vt 0.562500 0.606481
vt 0.531250 0.606481
vt 0.500000 0.606481
vt 0.468750 0.606481
vt 0.437500 0.606481
vt 0.406250 0.606481
vt 0.375000 0.611794
vt 0.625000 0.611794
vt 0.593750 0.659735
vt 0.562500 0.659735
vt 0.531250 0.659735
vt 0.500000 0.659735
vt 0.468750 0.659735
vt 0.437500 0.659735
vt 0.406250 0.659735
vt 0.375000 0.663097
vt 0.625000 0.663097
vt 0.562500 0.518757
vt 0.531250 0.518757
vt 0.500000 0.518757
vt 0.468750 0.518757
vt 0.437500 0.518757
vt 0.406250 0.518757
vt 0.375000 0.517987
vt 0.625000 0.517987
vt 0.593750 0.518757
vt 0.562500 0.426567
vt 0.531250 0.426567
vt 0.500000 0.426567
vt 0.468750 0.426567
vt 0.437500 0.426567
vt 0.406250 0.426567
vt 0.375000 0.430342
vt 0.625000 0.430342
vt 0.593750 0.426567
vt 0.390625 0.371421
vt 0.421875 0.371421
vt 0.453125 0.371421
vt 0.484375 0.371421
vt 0.515625 0.371421
vt 0.546875 0.371421
vt 0.578125 0.371421
vt 0.609375 0.371421
vt 0.578125 0.637446
vt 0.546875 0.637446
vt 0.515625 0.637446
vt 0.484375 0.637446
vt 0.453125 0.637446
vt 0.421875 0.637446
vt 0.390625 0.637446
vt 0.609375 0.637446
vt 0.578125 0.675299
vt 0.546875 0.675299
vt 0.515625 0.675299
vt 0.484375 0.675299
vt 0.453125 0.675299
vt 0.421875 0.675299
vt 0.390625 0.675299
vt 0.609375 0.675299
vt 0.546875 0.564891
vt 0.515625 0.564891
vt 0.484375 0.564891
vt 0.453125 0.564891
vt 0.421875 0.564891
vt 0.390625 0.564891
vt 0.609375 0.564891
vt 0.578125 0.564891
vt 0.546875 0.474164
vt 0.515625 0.474164
vt 0.484375 0.474164
vt 0.453125 0.474164
vt 0.421875 0.474164
vt 0.390625 0.474164
vt 0.609375 0.474164
vt 0.578125 0.474164
vt 0.390625 0.312500
vt 0.406250 0.371421
vt 0.390625 0.426567
vt 0.375000 0.371421
vt 0.625000 0.371421
vt 0.421875 0.312500
vt 0.437500 0.371421
vt 0.421875 0.426567
vt 0.453125 0.312500
vt 0.468750 0.371421
vt 0.453125 0.426567
vt 0.484375 0.312500
vt 0.500000 0.371421
vt 0.484375 0.426567
vt 0.515625 0.312500
vt 0.531250 0.371421
vt 0.515625 0.426567
vt 0.546875 0.312500
vt 0.562500 0.371421
vt 0.546875 0.426567
vt 0.578125 0.312500
vt 0.593750 0.371421
vt 0.578125 0.426567
vt 0.609375 0.312500
vt 0.609375 0.426567
vt 0.578125 0.606481
vt 0.593750 0.637446
vt 0.578125 0.659735
vt 0.562500 0.637446
vt 0.546875 0.606481
vt 0.546875 0.659735
vt 0.531250 0.637446
vt 0.515625 0.606481
vt 0.515625 0.659735
vt 0.500000 0.637446
vt 0.484375 0.606481
vt 0.484375 0.659735
vt 0.468750 0.637446
vt 0.453125 0.606481
vt 0.453125 0.659735
vt 0.437500 0.637446
vt 0.421875 0.606481
vt 0.421875 0.659735
vt 0.406250 0.637446
vt 0.390625 0.606481
vt 0.390625 0.659735
vt 0.375000 0.637446
vt 0.625000 0.637446
vt 0.609375 0.606481
vt 0.609375 0.659735
vt 0.593750 0.675299
vt 0.578125 0.687500
vt 0.562500 0.675299
vt 0.546875 0.687500
vt 0.531250 0.675299
vt 0.515625 0.687500
vt 0.500000 0.675299
vt 0.484375 0.687500
vt 0.468750 0.675299
vt 0.453125 0.687500
vt 0.437500 0.675299
vt 0.421875 0.687500
vt 0.406250 0.675299
vt 0.390625 0.687500
vt 0.375000 0.675299
vt 0.625000 0.675299
vt 0.609375 0.687500
vt 0.546875 0.518757
vt 0.562500 0.564891
vt 0.531250 0.564891
vt 0.515625 0.518757
vt 0.500000 0.564891
vt 0.484375 0.518757
vt 0.468750 0.564891
vt 0.453125 0.518757
vt 0.437500 0.564891
vt 0.421875 0.518757
vt 0.406250 0.564891
vt 0.390625 0.518757
vt 0.375000 0.564891
vt 0.625000 0.564891
vt 0.609375 0.518757
vt 0.593750 0.564891
vt 0.578125 0.518757
vt 0.562500 0.474164
vt 0.531250 0.474164
vt 0.500000 0.474164
vt 0.468750 0.474164
vt 0.437500 0.474164
vt 0.406250 0.474164
vt 0.375000 0.474164
vt 0.625000 0.474164
vt 0.593750 0.474164
vn 0.699094 -0.680605 -0.219191
vn 0.382605 -0.879709 -0.282357
vn 0.392052 -0.877433 -0.276418
vn 0.706193 -0.675109 -0.213352
vn 0.025444 -0.953177 -0.301339
vn 0.048540 -0.953945 -0.296029
vn 0.091725 -0.956350 -0.277454
vn 0.401948 -0.878390 -0.258591
vn 0.707444 -0.677835 -0.200158
vn -0.344628 -0.897433 -0.275399
vn -0.317477 -0.907974 -0.273479
vn -0.687823 -0.695766 -0.206903
vn -0.680912 -0.703019 -0.205240
vn -0.656876 -0.727251 -0.199045
vn -0.256484 -0.930271 -0.262321
vn -0.919604 -0.377099 -0.110112
vn -0.922046 -0.372089 -0.106683
vn -0.999961 -0.008460 -0.002458
vn -1.000000 0.000873 0.000291
vn -0.999998 0.001959 0.000599
vn -0.920921 -0.376384 -0.101188
vn -0.927244 0.359453 0.104937
vn -0.925015 0.365200 0.104765
vn -0.722685 0.662548 0.196867
vn -0.728699 0.657387 0.191935
vn -0.747233 0.640984 0.175452
vn -0.926316 0.363802 0.097907
vn -0.416393 0.869236 0.266545
vn -0.440678 0.859536 0.258845
vn -0.025113 0.953185 0.301342
vn -0.048542 0.953981 0.295911
vn -0.090901 0.956487 0.277254
vn -0.488673 0.839740 0.236720
vn 0.379981 0.880728 0.282724
vn 0.370680 0.885870 0.278980
vn 0.711626 0.668734 0.215368
vn 0.705056 0.676188 0.213693
vn 0.704903 0.680265 0.200875
vn 0.361349 0.894526 0.263153
vn 0.927286 0.356331 0.114757
vn 0.922936 0.367047 0.116042
vn 0.999921 -0.011963 -0.003853
vn 0.999999 0.001074 0.000410
vn 0.999997 0.002414 0.000849
vn 0.922686 0.369745 0.109271
vn 0.919054 -0.375156 -0.120820
vn 0.923686 -0.365355 -0.115416
vn 0.924355 -0.365938 -0.107969
vn 0.701217 0.702342 0.122515
vn 0.921010 0.383599 0.067760
vn 0.916130 0.399223 0.036426
vn 0.692980 0.718219 0.062768
vn 0.999990 0.004377 0.000388
vn 0.999874 0.015845 0.001375
vn 0.999783 0.020777 -0.001186
vn 0.914810 0.402241 -0.036408
vn 0.691376 0.719400 -0.066807
vn -0.032609 0.983741 0.176609
vn 0.370816 0.914931 0.159366
vn 0.370702 0.925382 0.079047
vn -0.005495 0.996273 0.086077
vn 0.371121 0.924502 -0.086973
vn 0.000000 0.995562 -0.094109
vn -0.716528 0.683323 0.140204
vn -0.418234 0.892116 0.170909
vn -0.378807 0.921685 0.083680
vn -0.695354 0.715302 0.069467
vn -0.371121 0.924502 -0.086973
vn -0.691376 0.719400 -0.066807
vn -0.999976 0.006797 0.001130
vn -0.921452 0.379830 0.081576
vn -0.915842 0.399391 0.041472
vn -0.999844 0.017564 0.001905
vn -0.914810 0.402241 -0.036408
vn -0.999784 0.020777 -0.001186
vn -0.689079 -0.707525 -0.156776
vn -0.923448 -0.374350 -0.084303
vn -0.927012 -0.372498 -0.043514
vn -0.706638 -0.702476 -0.084795
vn -0.928511 -0.369834 0.033012
vn -0.712005 -0.699578 0.060319
vn 0.034095 -0.980258 -0.194760
vn -0.336178 -0.921533 -0.194321
vn -0.374689 -0.920513 -0.110746
vn 0.005807 -0.993211 -0.116186
vn -0.384381 -0.919903 0.077656
vn -0.000000 -0.996515 0.083411
vn 0.705549 -0.696474 -0.130858
vn 0.387872 -0.905300 -0.173171
vn 0.383009 -0.917910 -0.103663
vn 0.708575 -0.701520 -0.076094
vn 0.384381 -0.919902 0.077656
vn 0.712005 -0.699578 0.060319
vn 0.923882 -0.376273 -0.069716
vn 0.926589 -0.374093 -0.038560
vn 0.928511 -0.369834 0.033012
vn 0.917701 0.385374 -0.096497
vn 0.695746 0.696532 -0.175444
vn 0.999920 0.012316 -0.002699
vn 0.999567 0.028133 -0.008669
vn 0.912038 0.392310 -0.119500
vn 0.687530 0.694485 -0.212115
vn 0.373995 0.899172 -0.227194
vn 0.000000 0.969462 -0.245242
vn 0.368842 0.888818 -0.271953
vn 0.000000 0.956189 -0.292749
vn -0.373994 0.899172 -0.227194
vn -0.695746 0.696532 -0.175444
vn -0.368842 0.888818 -0.271954
vn -0.687530 0.694485 -0.212115
vn -0.917701 0.385374 -0.096497
vn -0.999920 0.012316 -0.002699
vn -0.912038 0.392309 -0.119500
vn -0.999567 0.028133 -0.008669
vn -0.925977 -0.366353 0.091391
vn -0.708140 -0.685361 0.169756
vn -0.931395 -0.348543 0.104977
vn -0.716664 -0.668007 0.200398
vn -0.381905 -0.897311 0.221318
vn 0.000000 -0.970995 0.239098
vn -0.387538 -0.883207 0.264121
vn 0.000000 -0.958172 0.286194
vn 0.381905 -0.897311 0.221318
vn 0.708140 -0.685361 0.169756
vn 0.387538 -0.883207 0.264121
vn 0.716664 -0.668007 0.200398
vn 0.925977 -0.366353 0.091391
vn 0.931395 -0.348544 0.104977
vn -0.116734 0.966583 0.228234
vn 0.356622 0.909889 0.211951
vn 0.364338 0.911770 0.189561
vn -0.078422 0.974695 0.209330
vn 0.706333 0.689516 0.160190
vn 0.705437 0.694088 0.143529
vn -0.759516 0.631288 0.156878
vn -0.517418 0.831646 0.201600
vn -0.475187 0.857757 0.196085
vn -0.742184 0.651251 0.158225
vn -0.999999 -0.001099 -0.000303
vn -0.928306 0.360561 0.090795
vn -0.925956 0.366241 0.092053
vn -0.999999 0.001176 0.000211
vn -0.639807 -0.745877 -0.185244
vn -0.918968 -0.382395 -0.096294
vn -0.920933 -0.377755 -0.095837
vn -0.663564 -0.726347 -0.179169
vn 0.116684 -0.966589 -0.228234
vn -0.218633 -0.948356 -0.229826
vn -0.274456 -0.936489 -0.218317
vn 0.078914 -0.973727 -0.213606
vn 0.707775 -0.688112 -0.159865
vn 0.407647 -0.889325 -0.207181
vn 0.399097 -0.896961 -0.190218
vn 0.707002 -0.692100 -0.145415
vn 0.999999 0.001400 0.000342
vn 0.924330 -0.371698 -0.086343
vn 0.924052 -0.374140 -0.078400
vn 0.999999 0.001549 0.000196
vn 0.923388 0.373908 0.086878
vn 0.923032 0.376713 0.078099
vn 0.355414 0.904166 0.236990
vn -0.120203 0.960795 0.249847
vn 0.705710 0.685248 0.180022
vn -0.520440 0.827153 0.212038
vn -0.760117 0.630033 0.158999
vn -0.927883 0.361734 0.090455
vn -1.000000 0.000590 0.000164
vn -0.919377 -0.381633 -0.095399
vn -0.637903 -0.746713 -0.188412
vn -0.212298 -0.946603 -0.242635
vn 0.121012 -0.960680 -0.249899
vn 0.408477 -0.882923 -0.231503
vn 0.707873 -0.683165 -0.179450
vn 0.924466 -0.368769 -0.096813
vn 0.999998 0.002075 0.000632
vn 0.923050 0.372042 0.097793
s 1
g pCylinder1
usemtl initialShadingGroup
f 1/1/1 89/95/2 137/55/3 92/98/4
f 89/95/2 2/3/5 90/96/6 137/55/3
f 137/55/3 90/96/6 46/51/7 91/97/8
f 92/98/4 137/55/3 91/97/8 47/52/9
f 2/3/5 93/100/10 138/56/11 90/96/6
f 93/100/10 3/4/12 94/101/13 138/56/11
f 138/56/11 94/101/13 45/50/14 95/102/15
f 90/96/6 138/56/11 95/102/15 46/51/7
f 3/4/12 96/103/16 139/57/17 94/101/13
f 96/103/16 4/5/18 97/104/19 139/57/17
f 139/57/17 97/104/19 44/49/20 98/105/21
f 94/101/13 139/57/17 98/105/21 45/50/14
f 4/5/18 99/106/22 140/58/23 97/104/19
f 99/106/22 5/6/24 100/107/25 140/58/23
f 140/58/23 100/107/25 43/48/26 101/108/27
f 97/104/19 140/58/23 101/108/27 44/49/20
f 5/6/24 102/109/28 141/59/29 100/107/25
f 102/109/28 6/7/30 103/110/31 141/59/29
f 141/59/29 103/110/31 42/47/32 104/111/33
f 100/107/25 141/59/29 104/111/33 43/48/26
f 6/7/30 105/112/34 142/60/35 103/110/31
f 105/112/34 7/8/36 106/113/37 142/60/35
f 142/60/35 106/113/37 41/46/38 107/114/39
f 103/110/31 142/60/35 107/114/39 42/47/32
f 7/8/36 108/115/40 143/61/41 106/113/37
f 108/115/40 8/9/42 109/116/43 143/61/41
f 143/61/41 109/116/43 48/54/44 110/117/45
f 106/113/37 143/61/41 110/117/45 41/46/38
f 8/9/42 111/118/46 144/62/47 109/116/43
f 111/118/46 1/2/1 92/99/4 144/62/47
f 144/62/47 92/99/4 47/53/9 112/119/48
f 109/116/43 144/62/47 112/119/48 48/54/44
f 18/20/49 113/120/50 145/63/51 116/123/52
f 113/120/50 17/19/53 114/121/54 145/63/51
f 145/63/51 114/121/54 25/28/55 115/122/56
f 116/123/52 145/63/51 115/122/56 26/29/57
f 19/21/58 117/124/59 146/64/60 119/126/61
f 117/124/59 18/20/49 116/123/52 146/64/60
f 146/64/60 116/123/52 26/29/57 118/125/62
f 119/126/61 146/64/60 118/125/62 27/30/63
f 20/22/64 120/127/65 147/65/66 122/129/67
f 120/127/65 19/21/58 119/126/61 147/65/66
f 147/65/66 119/126/61 27/30/63 121/128/68
f 122/129/67 147/65/66 121/128/68 28/31/69
f 21/23/70 123/130/71 148/66/72 125/132/73
f 123/130/71 20/22/64 122/129/67 148/66/72
f 148/66/72 122/129/67 28/31/69 124/131/74
f 125/132/73 148/66/72 124/131/74 29/32/75
f 22/24/76 126/133/77 149/67/78 128/135/79
f 126/133/77 21/23/70 125/132/73 149/67/78
f 149/67/78 125/132/73 29/32/75 127/134/80
f 128/135/79 149/67/78 127/134/80 30/33/81
f 23/25/82 129/136/83 150/68/84 131/138/85
f 129/136/83 22/24/76 128/135/79 150/68/84
f 150/68/84 128/135/79 30/33/81 130/137/86
f 131/138/85 150/68/84 130/137/86 31/34/87
f 24/26/88 132/139/89 151/69/90 134/141/91
f 132/139/89 23/25/82 131/138/85 151/69/90
f 151/69/90 131/138/85 31/34/87 133/140/92
f 134/141/91 151/69/90 133/140/92 32/35/93
f 17/19/53 135/143/94 152/70/95 114/121/54
f 135/143/94 24/27/88 134/142/91 152/70/95
f 152/70/95 134/142/91 32/36/93 136/144/96
f 114/121/54 152/70/95 136/144/96 25/28/55
f 26/29/57 115/122/56 153/71/97 51/147/98
f 115/122/56 25/28/55 49/145/99 153/71/97
f 153/71/97 49/145/99 16/18/100 50/146/101
f 51/147/98 153/71/97 50/146/101 15/17/102
f 27/30/63 118/125/62 154/72/103 53/149/104
f 118/125/62 26/29/57 51/147/98 154/72/103
f 154/72/103 51/147/98 15/17/102 52/148/105
f 53/149/104 154/72/103 52/148/105 14/16/106
f 28/31/69 121/128/68 155/73/107 55/151/108
f 121/128/68 27/30/63 53/149/104 155/73/107
f 155/73/107 53/149/104 14/16/106 54/150/109
f 55/151/108 155/73/107 54/150/109 13/15/110
f 29/32/75 124/131/74 156/74/111 57/153/112
f 124/131/74 28/31/69 55/151/108 156/74/111
f 156/74/111 55/151/108 13/15/110 56/152/113
f 57/153/112 156/74/111 56/152/113 12/14/114
f 30/33/81 127/134/80 157/75/115 59/155/116
f 127/134/80 29/32/75 57/153/112 157/75/115
f 157/75/115 57/153/112 12/14/114 58/154/117
f 59/155/116 157/75/115 58/154/117 11/13/118
f 31/34/87 130/137/86 158/76/119 61/157/120
f 130/137/86 30/33/81 59/155/116 158/76/119
f 158/76/119 59/155/116 11/13/118 60/156/121
f 61/157/120 158/76/119 60/156/121 10/12/122
f 32/35/93 133/140/92 159/77/123 63/159/124
f 133/140/92 31/34/87 61/157/120 159/77/123
f 159/77/123 61/157/120 10/12/122 62/158/125
f 63/159/124 159/77/123 62/158/125 9/11/126
f 25/28/55 136/144/96 160/78/127 49/145/99
f 136/144/96 32/36/93 63/160/124 160/78/127
f 160/78/127 63/160/124 9/10/126 64/161/128
f 49/145/99 160/78/127 64/161/128 16/18/100
f 34/38/129 65/162/130 161/79/131 67/164/132
f 65/162/130 33/37/133 66/163/134 161/79/131
f 161/79/131 66/163/134 18/20/49 117/124/59
f 67/164/132 161/79/131 117/124/59 19/21/58
f 35/39/135 68/165/136 162/80/137 69/166/138
f 68/165/136 34/38/129 67/164/132 162/80/137
f 162/80/137 67/164/132 19/21/58 120/127/65
f 69/166/138 162/80/137 120/127/65 20/22/64
f 36/40/139 70/167/140 163/81/141 71/168/142
f 70/167/140 35/39/135 69/166/138 163/81/141
f 163/81/141 69/166/138 20/22/64 123/130/71
f 71/168/142 163/81/141 123/130/71 21/23/70
f 37/41/143 72/169/144 164/82/145 73/170/146
f 72/169/144 36/40/139 71/168/142 164/82/145
f 164/82/145 71/168/142 21/23/70 126/133/77
f 73/170/146 164/82/145 126/133/77 22/24/76
f 38/42/147 74/171/148 165/83/149 75/172/150
f 74/171/148 37/41/143 73/170/146 165/83/149
f 165/83/149 73/170/146 22/24/76 129/136/83
f 75/172/150 165/83/149 129/136/83 23/25/82
f 39/43/151 76/173/152 166/84/153 77/174/154
f 76/173/152 38/42/147 75/172/150 166/84/153
f 166/84/153 75/172/150 23/25/82 132/139/89
f 77/174/154 166/84/153 132/139/89 24/26/88
f 40/45/155 78/176/156 167/85/157 79/177/158
f 78/176/156 39/44/151 77/175/154 167/85/157
f 167/85/157 77/175/154 24/27/88 135/143/94
f 79/177/158 167/85/157 135/143/94 17/19/53
f 33/37/133 80/178/159 168/86/160 66/163/134
f 80/178/159 40/45/155 79/177/158 168/86/160
f 168/86/160 79/177/158 17/19/53 113/120/50
f 66/163/134 168/86/160 113/120/50 18/20/49
f 42/47/32 107/114/39 169/87/161 82/180/162
f 107/114/39 41/46/38 81/179/163 169/87/161
f 169/87/161 81/179/163 33/37/133 65/162/130
f 82/180/162 169/87/161 65/162/130 34/38/129
f 43/48/26 104/111/33 170/88/164 83/181/165
f 104/111/33 42/47/32 82/180/162 170/88/164
f 170/88/164 82/180/162 34/38/129 68/165/136
f 83/181/165 170/88/164 68/165/136 35/39/135
f 44/49/20 101/108/27 171/89/166 84/182/167
f 101/108/27 43/48/26 83/181/165 171/89/166
f 171/89/166 83/181/165 35/39/135 70/167/140
f 84/182/167 171/89/166 70/167/140 36/40/139
f 45/50/14 98/105/21 172/90/168 85/183/169
f 98/105/21 44/49/20 84/182/167 172/90/168
f 172/90/168 84/182/167 36/40/139 72/169/144
f 85/183/169 172/90/168 72/169/144 37/41/143
f 46/51/7 95/102/15 173/91/170 86/184/171
f 95/102/15 45/50/14 85/183/169 173/91/170
f 173/91/170 85/183/169 37/41/143 74/171/148
f 86/184/171 173/91/170 74/171/148 38/42/147
f 47/52/9 91/97/8 174/92/172 87/185/173
f 91/97/8 46/51/7 86/184/171 174/92/172
f 174/92/172 86/184/171 38/42/147 76/173/152
f 87/185/173 174/92/172 76/173/152 39/43/151
f 48/54/44 112/119/48 175/93/174 88/187/175
f 112/119/48 47/53/9 87/186/173 175/93/174
f 175/93/174 87/186/173 39/44/151 78/176/156
f 88/187/175 175/93/174 78/176/156 40/45/155
f 41/46/38 110/117/45 176/94/176 81/179/163
f 110/117/45 48/54/44 88/187/175 176/94/176
f 176/94/176 88/187/175 40/45/155 80/178/159
f 81/179/163 176/94/176 80/178/159 33/37/133
